<svg width="98" height="98" viewBox="0 0 98 98" fill="none" xmlns="http://www.w3.org/2000/svg">
<circle cx="49" cy="49" r="49" fill="#222222" fill-opacity="0.1"/>
<path d="M64.7062 55.9856L44.5127 36.9963C44.1578 36.6627 43.7292 36.4175 43.2617 36.2808C42.7942 36.144 42.3011 36.1195 41.8224 36.2093L35.4017 37.412L31.1741 35.918L23.5278 50.3632C23.5278 50.3632 29.7761 58.3414 31.9612 60.2943C34.1462 62.2472 46.0585 67.0591 49.9649 68.0745C53.8713 69.0899 54.1268 65.4776 54.1268 65.4776C57.3284 66.0239 58.0546 62.8726 58.0546 62.8726C62.8985 63.2632 62.0388 59.9822 62.0388 59.9822C63.726 60.3791 64.6283 59.8797 65.1086 59.1716C65.4292 58.6788 65.5647 58.0882 65.491 57.5049C65.4174 56.9216 65.1393 56.3833 64.7062 55.9856V55.9856Z" fill="#DDB087"/>
<path d="M64.4594 37.5602L62.0375 38.2629L51.9393 37.1088C51.385 37.0453 50.824 37.0747 50.2794 37.1958L43.8934 38.6151C42.6337 38.8948 41.53 39.6488 40.8114 40.7206C39.9758 41.966 38.8809 43.6607 38.2235 44.9248C38.1542 45.057 38.1161 45.2033 38.1122 45.3525C38.1082 45.5017 38.1386 45.6499 38.2009 45.7855C38.2632 45.9212 38.3558 46.0407 38.4716 46.135C38.5873 46.2292 38.7232 46.2956 38.8686 46.3292C40.5761 46.7192 43.8182 47.0074 45.7113 44.2786L50.0083 43.8101L64.8761 56.161L71.8832 51.935L73.7582 49.8257L64.4594 37.5602Z" fill="#F0C191"/>
<path d="M47.6961 63.6091C47.261 63.3688 46.7483 63.3112 46.2707 63.4488C45.7931 63.5865 45.3897 63.9083 45.1493 64.3433L43.922 66.5694C43.8029 66.7849 43.7274 67.0217 43.6998 67.2664C43.6722 67.511 43.6931 67.7587 43.7612 67.9953C43.8293 68.2319 43.9434 68.4528 44.0969 68.6453C44.2504 68.8378 44.4402 68.9982 44.6557 69.1173C44.8712 69.2364 45.108 69.3119 45.3527 69.3395C45.5973 69.3671 45.845 69.3463 46.0816 69.2781C46.3182 69.21 46.5391 69.0959 46.7316 68.9425C46.9241 68.789 47.0845 68.5991 47.2036 68.3836L48.4308 66.157C48.55 65.9415 48.6256 65.7046 48.6532 65.4598C48.6807 65.2151 48.6598 64.9674 48.5916 64.7307C48.5233 64.4941 48.4091 64.2732 48.2555 64.0808C48.1018 63.8883 47.9117 63.728 47.6961 63.6091V63.6091Z" fill="#F0C191"/>
<path d="M44.529 60.8034C44.2698 60.6603 43.985 60.5696 43.6908 60.5366C43.3966 60.5035 43.0987 60.5287 42.8143 60.6108C42.5298 60.6928 42.2643 60.8301 42.0329 61.0148C41.8015 61.1994 41.6088 61.4279 41.4656 61.687L39.9865 64.3646C39.6974 64.8882 39.6281 65.5052 39.794 66.0799C39.9598 66.6545 40.3471 67.1398 40.8707 67.4289C41.3943 67.7181 42.0113 67.7873 42.586 67.6215C43.1607 67.4557 43.646 67.0684 43.9351 66.5448L45.4104 63.8673C45.6997 63.344 45.7693 62.7274 45.604 62.1528C45.4387 61.5783 45.052 61.0929 44.529 60.8034V60.8034Z" fill="#F0C191"/>
<path d="M40.5822 58.6229C40.0588 58.3338 39.4421 58.2644 38.8676 58.43C38.2932 58.5956 37.808 58.9826 37.5189 59.506L36.0398 62.184C35.7506 62.7076 35.6814 63.3246 35.8472 63.8993C36.013 64.474 36.4003 64.9593 36.9239 65.2484C37.4475 65.5375 38.0645 65.6068 38.6392 65.441C39.2139 65.2752 39.6992 64.8879 39.9883 64.3642L41.4674 61.6867C41.6105 61.4274 41.7011 61.1425 41.734 60.8482C41.7669 60.5539 41.7416 60.2559 41.6594 59.9714C41.5772 59.6869 41.4397 59.4214 41.2549 59.19C41.0701 58.9586 40.8415 58.7659 40.5822 58.6229Z" fill="#F0C191"/>
<path d="M36.6351 56.4427C36.1118 56.1536 35.495 56.0842 34.9205 56.2498C34.3461 56.4154 33.8609 56.8025 33.5718 57.3258L32.0921 60.0033C31.9489 60.2626 31.8582 60.5475 31.8251 60.8418C31.7921 61.1362 31.8173 61.4341 31.8994 61.7187C31.9814 62.0033 32.1188 62.2689 32.3035 62.5004C32.4882 62.7319 32.7168 62.9248 32.976 63.068C33.2353 63.2112 33.5202 63.3019 33.8145 63.3349C34.1089 63.368 34.4068 63.3428 34.6914 63.2607C34.976 63.1787 35.2416 63.0413 35.4731 62.8566C35.7046 62.6719 35.8975 62.4433 36.0407 62.1841L37.5198 59.506C37.6628 59.2468 37.7535 58.9619 37.7864 58.6677C37.8194 58.3734 37.7941 58.0756 37.7119 57.7911C37.6298 57.5066 37.4924 57.2411 37.3076 57.0098C37.1229 56.7784 36.8943 56.5857 36.6351 56.4427V56.4427Z" fill="#F0C191"/>
<path d="M71.2088 30.6259L63.0853 35.7692C62.6714 36.0312 62.5484 36.5792 62.8104 36.993L72.9034 52.9343C73.1654 53.3482 73.7134 53.4713 74.1272 53.2092L82.2507 48.066C82.6646 47.8039 82.7877 47.256 82.5256 46.8421L72.4326 30.9008C72.1706 30.487 71.6227 30.3639 71.2088 30.6259Z" fill="#F26176"/>
<path d="M82.5176 46.8444L79.7488 42.4722C79.7344 42.486 79.7189 42.4988 79.704 42.5127L79.8219 42.6995C79.9473 42.8983 79.9887 43.1387 79.9372 43.368C79.8857 43.5973 79.7454 43.7969 79.5471 43.923L71.4254 49.0657C71.2738 49.1608 71.097 49.2078 70.9182 49.2007C70.7394 49.1936 70.5669 49.1326 70.4233 49.0257L72.897 52.9363C73.0231 53.1348 73.2226 53.2751 73.452 53.3266C73.6814 53.3782 73.9218 53.3366 74.1206 53.2111L82.2428 48.0689C82.4411 47.9425 82.5813 47.7428 82.6328 47.5133C82.6843 47.2839 82.6429 47.0434 82.5176 46.8444V46.8444Z" fill="#E95A6A"/>
<path d="M25.7724 29.7122L14.5285 44.8611C14.2366 45.2544 14.3188 45.8099 14.7121 46.1018L22.4318 51.8315C22.8251 52.1234 23.3806 52.0412 23.6725 51.6479L34.9163 36.499C35.2082 36.1057 35.126 35.5502 34.7328 35.2583L27.013 29.5286C26.6197 29.2367 26.0643 29.3189 25.7724 29.7122Z" fill="#6BB3D9"/>
<path d="M26.6176 47.584L26.4656 47.7889C26.3961 47.8825 26.3089 47.9616 26.2088 48.0214C26.1088 48.0813 25.9979 48.1208 25.8825 48.1377C25.7672 48.1546 25.6496 48.1485 25.5366 48.1199C25.4236 48.0913 25.3173 48.0406 25.2239 47.9708L17.504 42.2428C17.3595 42.1363 17.2509 41.9883 17.1926 41.8185C17.1343 41.6488 17.129 41.4653 17.1774 41.2925L14.5309 44.8584C14.3908 45.0473 14.3313 45.284 14.3653 45.5167C14.3993 45.7494 14.5241 45.9591 14.7123 46.1001L22.4354 51.8281C22.5291 51.8976 22.6356 51.9478 22.7487 51.976C22.8619 52.0043 22.9795 52.0099 23.0949 51.9926C23.2102 51.9753 23.321 51.9354 23.4209 51.8752C23.5208 51.8151 23.6078 51.7358 23.6771 51.6419L26.6545 47.6277C26.6422 47.6133 26.6283 47.5989 26.6176 47.584V47.584Z" fill="#4FA4D1"/>
</svg>
