<svg width="98" height="98" viewBox="0 0 98 98" fill="none" xmlns="http://www.w3.org/2000/svg">
<circle cx="49" cy="49" r="49" fill="#222222" fill-opacity="0.1"/>
<path d="M63.9862 22H29.1949C27.2792 22 25.7263 23.5529 25.7263 25.4687V31.7547C25.7263 33.6704 27.2793 35.2234 29.195 35.2234H32.5489L33.1223 35.7936H37.1855L37.8711 35.2234H63.9862C65.9019 35.2234 67.4548 33.6704 67.4548 31.7547V25.4687C67.4548 23.5529 65.9019 22 63.9862 22V22Z" fill="#95D6A4"/>
<path d="M31.9635 35.2231C32.4114 35.2231 32.7503 35.6285 32.6709 36.0693L31.8886 40.4132C31.8195 40.7967 32.2805 41.0453 32.5631 40.7771L38.2059 35.4206C38.3394 35.2938 38.5166 35.2231 38.7008 35.2231H31.9635Z" fill="#78C2A4"/>
<path d="M69.8052 22H63.3132C65.2289 22 66.7819 23.5529 66.7819 25.4687V31.7547C66.7819 33.6704 65.229 35.2234 63.3133 35.2234H60.2993C60.4835 35.2234 60.6606 35.2941 60.7942 35.4209L66.437 40.7774C66.7196 41.0456 67.1806 40.7969 67.1116 40.4135L66.3292 36.0696C66.2498 35.6288 66.5887 35.2234 67.0366 35.2234H69.8052C71.7209 35.2234 73.2739 33.6704 73.2739 31.7547V25.4687C73.2738 23.5529 71.7209 22 69.8052 22V22Z" fill="#78C2A4"/>
<path d="M29.7332 71.7046C29.2729 69.1428 31.1648 66.7582 33.7642 66.6242C36.0642 66.5055 37.8671 64.6041 37.8634 62.3011L37.8432 49.9552C37.8432 49.4339 37.8021 48.825 37.7089 48.2113C37.5702 47.3017 37.3871 46.7415 37.2508 46.3071H32.3824C28.8504 46.3071 25.9871 49.1705 25.9871 52.7025V72.0065H29.7875L29.7332 71.7046Z" fill="#D5985C"/>
<path d="M45.101 58.4269L43.7771 55.6479C43.6985 55.4829 43.6566 55.303 43.6544 55.1203L43.6292 53.0873C43.6292 50.5323 42.7441 48.1701 41.2629 46.3071H36.3333C36.3569 46.4871 36.3983 46.6664 36.4593 46.8424C36.8471 47.961 37.0581 49.1608 37.0581 50.4067L37.0771 62.0762C37.0807 64.2531 35.3765 66.0503 33.2025 66.1625C30.7455 66.2893 28.9572 68.5432 29.3923 70.9647L29.5796 72.0065H35.6061L35.1434 69.082C34.9868 68.092 35.7524 67.1963 36.7548 67.197L40.5307 67.1996C41.713 67.2014 42.6725 66.2435 42.6726 65.0612L42.6729 61.5216C42.673 60.8179 43.2376 60.2229 43.9411 60.2334C44.8789 60.2475 45.5036 59.2722 45.101 58.4269V58.4269Z" fill="#C38959"/>
<path d="M30.9128 61.3008V59.7375C30.9128 58.9045 31.2984 58.1182 31.957 57.6082L34.6417 55.5294C35.6436 54.7536 36.2301 53.5578 36.2301 52.2905C36.2301 50.979 36.8473 49.8124 37.8061 49.0627C37.7841 48.7862 37.7523 48.5006 37.7088 48.2135C37.4874 46.7622 37.1529 46.2 37.0763 45.6202H37.0769C37.0345 45.2973 37.0481 44.9722 37.1135 44.6567L36.7936 44.3896H32.8929C27.2523 44.3896 23.0379 49.5751 24.191 55.0965L25.9869 63.6964H28.5172C29.8403 63.6964 30.9128 62.6239 30.9128 61.3008V61.3008Z" fill="#6B61B1"/>
<path d="M43.7355 44.3877H36.7935C36.3076 45.1107 36.1712 46.0119 36.4592 46.8426C36.7878 47.7906 36.9879 48.7974 37.0417 49.8408C37.7886 48.8402 38.9817 48.1924 40.3262 48.1924H40.8423C42.6919 48.1924 44.1912 46.693 44.1912 44.8436C44.1914 44.5918 43.9873 44.3877 43.7355 44.3877V44.3877Z" fill="#5E54AC"/>
<path d="M29.8149 69.7533L25.4347 69.3317C24.7467 69.2655 24.1514 69.8063 24.1514 70.4974V71.8812C24.1514 72.5279 24.6757 73.0523 25.3225 73.0523H30.9108L31.2348 72.562V71.6297C31.2348 70.7388 30.6364 69.9862 29.8149 69.7533V69.7533Z" fill="#E28086"/>
<path d="M36.3439 70.3818L29.2429 69.6982C30.1896 69.8371 30.9109 70.6511 30.9109 71.6297V73.0523H36.2317C36.8785 73.0523 37.4029 72.528 37.4029 71.8811V71.5474C37.4028 70.9441 36.9444 70.4396 36.3439 70.3818Z" fill="#DD636E"/>
<path d="M63.3941 72.0065H67.2193V65.4612C67.2193 64.2863 67.3404 63.1145 67.5806 61.9644L68.352 58.2708L69.0153 55.0944C69.7134 51.7493 68.4419 48.3799 65.8338 46.3071H57.7374C56.2561 48.1702 55.371 50.5323 55.371 53.0874L55.3458 55.1204C55.3435 55.3031 55.3016 55.483 55.2231 55.648L53.8993 58.4271C53.4966 59.2723 54.1213 60.2476 55.0592 60.2334C55.7628 60.2228 56.3274 60.8179 56.3274 61.5216L56.3277 65.0612C56.3278 66.2435 57.2872 67.2014 58.4696 67.1996L62.2455 67.197C63.2479 67.1963 64.0134 68.092 63.8568 69.082L63.3941 72.0065Z" fill="#FFDDCE"/>
<path d="M66.6179 46.3071H65.1357C67.6561 48.3102 69.0394 51.6363 68.3173 55.0944L66.8825 61.9644C66.6423 63.1145 66.5212 64.2863 66.5212 65.4612V72.0065H73.0132V52.7025C73.0132 49.1705 70.15 46.3071 66.6179 46.3071V46.3071Z" fill="#FFCBBE"/>
<path d="M68.0816 59.5651L68.3518 58.271L69.0152 55.0946C69.7133 51.7495 68.4417 48.3802 65.8337 46.3074C64.3298 45.1121 62.4212 44.3877 60.3132 44.3877H55.2645C55.0127 44.3877 54.8086 44.5918 54.8086 44.8436C54.8086 46.6931 56.308 48.1924 58.1574 48.1924H58.6736C60.9359 48.1924 62.7699 50.0263 62.7699 52.2887C62.7699 53.5559 63.3564 54.7517 64.3583 55.5275L67.0431 57.6063C67.6567 58.0813 68.0328 58.796 68.0816 59.5651V59.5651Z" fill="#E49542"/>
<path d="M66.1072 44.3877H59.6152C65.2558 44.3877 69.4702 49.5731 68.3171 55.0946L67.6537 58.271C67.933 58.702 68.0873 59.2093 68.0873 59.7355V61.299C68.0873 62.622 69.1598 63.6945 70.4828 63.6945H73.0131L74.809 55.0946C75.9622 49.5731 71.7477 44.3877 66.1072 44.3877V44.3877Z" fill="#E27D47"/>
<path d="M66.7796 69.9849L62.6565 70.3817C62.0559 70.4395 61.5977 70.9441 61.5977 71.5475V71.8812C61.5977 72.5279 62.1219 73.0523 62.7687 73.0523H68.3569L68.44 72.7875V71.7499C68.4399 70.7999 67.696 70.0411 66.7796 69.9849V69.9849Z" fill="#B1E4F9"/>
<path d="M73.5654 69.3317L66.4858 70.0132C67.4943 69.9459 68.3567 70.7442 68.3567 71.7622V73.0523H73.6776C74.3243 73.0523 74.8487 72.528 74.8487 71.8812V70.4973C74.8487 69.8063 74.2533 69.2655 73.5654 69.3317V69.3317Z" fill="#90D8F9"/>
<path d="M67.3897 27.2351H31.6112C31.1857 27.2351 30.8408 26.8902 30.8408 26.4647C30.8408 26.0392 31.1857 25.6943 31.6112 25.6943H67.3898C67.8154 25.6943 68.1602 26.0392 68.1602 26.4647C68.1602 26.8902 67.8153 27.2351 67.3897 27.2351V27.2351Z" fill="#F0F7FF"/>
<path d="M49.5 31.1106H31.6107C31.1852 31.1106 30.8403 30.7657 30.8403 30.3402C30.8403 29.9146 31.1852 29.5698 31.6107 29.5698H49.5C49.9255 29.5698 50.2704 29.9147 50.2704 30.3402C50.2704 30.7657 49.9255 31.1106 49.5 31.1106Z" fill="#F0F7FF"/>
</svg>
