<svg width="39" height="19" viewBox="0 0 39 19" fill="none" xmlns="http://www.w3.org/2000/svg">
<path d="M2.402 0.68V14H0.35V0.68H2.402ZM9.39809 14.162C8.46209 14.162 7.61609 13.952 6.86009 13.532C6.10409 13.1 5.51009 12.5 5.07809 11.732C4.64609 10.952 4.43009 10.052 4.43009 9.032C4.43009 8.024 4.65209 7.13 5.09609 6.35C5.54009 5.57 6.14609 4.97 6.91409 4.55C7.68209 4.13 8.54009 3.92 9.48809 3.92C10.4361 3.92 11.2941 4.13 12.0621 4.55C12.8301 4.97 13.4361 5.57 13.8801 6.35C14.3241 7.13 14.5461 8.024 14.5461 9.032C14.5461 10.04 14.3181 10.934 13.8621 11.714C13.4061 12.494 12.7821 13.1 11.9901 13.532C11.2101 13.952 10.3461 14.162 9.39809 14.162ZM9.39809 12.38C9.92609 12.38 10.4181 12.254 10.8741 12.002C11.3421 11.75 11.7201 11.372 12.0081 10.868C12.2961 10.364 12.4401 9.752 12.4401 9.032C12.4401 8.312 12.3021 7.706 12.0261 7.214C11.7501 6.71 11.3841 6.332 10.9281 6.08C10.4721 5.828 9.98009 5.702 9.45209 5.702C8.92409 5.702 8.43209 5.828 7.97609 6.08C7.53209 6.332 7.17809 6.71 6.91409 7.214C6.65009 7.706 6.51809 8.312 6.51809 9.032C6.51809 10.1 6.78809 10.928 7.32809 11.516C7.88009 12.092 8.57009 12.38 9.39809 12.38ZM20.5706 3.92C21.3386 3.92 22.0166 4.076 22.6046 4.388C23.2046 4.688 23.6726 5.066 24.0086 5.522V4.082H26.0786V14.162C26.0786 15.074 25.8866 15.884 25.5026 16.592C25.1186 17.312 24.5606 17.876 23.8286 18.284C23.1086 18.692 22.2446 18.896 21.2366 18.896C19.8926 18.896 18.7766 18.578 17.8886 17.942C17.0006 17.318 16.4966 16.466 16.3766 15.386H18.4106C18.5666 15.902 18.8966 16.316 19.4006 16.628C19.9166 16.952 20.5286 17.114 21.2366 17.114C22.0646 17.114 22.7306 16.862 23.2346 16.358C23.7506 15.854 24.0086 15.122 24.0086 14.162V12.506C23.6606 12.974 23.1866 13.37 22.5866 13.694C21.9986 14.006 21.3266 14.162 20.5706 14.162C19.7066 14.162 18.9146 13.946 18.1946 13.514C17.4866 13.07 16.9226 12.458 16.5026 11.678C16.0946 10.886 15.8906 9.992 15.8906 8.996C15.8906 8 16.0946 7.118 16.5026 6.35C16.9226 5.582 17.4866 4.988 18.1946 4.568C18.9146 4.136 19.7066 3.92 20.5706 3.92ZM24.0086 9.032C24.0086 8.348 23.8646 7.754 23.5766 7.25C23.3006 6.746 22.9346 6.362 22.4786 6.098C22.0226 5.834 21.5306 5.702 21.0026 5.702C20.4746 5.702 19.9826 5.834 19.5266 6.098C19.0706 6.35 18.6986 6.728 18.4106 7.232C18.1346 7.724 17.9966 8.312 17.9966 8.996C17.9966 9.68 18.1346 10.28 18.4106 10.796C18.6986 11.312 19.0706 11.708 19.5266 11.984C19.9946 12.248 20.4866 12.38 21.0026 12.38C21.5306 12.38 22.0226 12.248 22.4786 11.984C22.9346 11.72 23.3006 11.336 23.5766 10.832C23.8646 10.316 24.0086 9.716 24.0086 9.032ZM33.0758 14.162C32.1398 14.162 31.2938 13.952 30.5378 13.532C29.7818 13.1 29.1878 12.5 28.7558 11.732C28.3238 10.952 28.1078 10.052 28.1078 9.032C28.1078 8.024 28.3298 7.13 28.7738 6.35C29.2178 5.57 29.8238 4.97 30.5918 4.55C31.3598 4.13 32.2178 3.92 33.1658 3.92C34.1138 3.92 34.9718 4.13 35.7398 4.55C36.5078 4.97 37.1138 5.57 37.5578 6.35C38.0018 7.13 38.2238 8.024 38.2238 9.032C38.2238 10.04 37.9958 10.934 37.5398 11.714C37.0838 12.494 36.4598 13.1 35.6678 13.532C34.8878 13.952 34.0238 14.162 33.0758 14.162ZM33.0758 12.38C33.6038 12.38 34.0958 12.254 34.5518 12.002C35.0198 11.75 35.3978 11.372 35.6858 10.868C35.9738 10.364 36.1178 9.752 36.1178 9.032C36.1178 8.312 35.9798 7.706 35.7038 7.214C35.4278 6.71 35.0618 6.332 34.6058 6.08C34.1498 5.828 33.6578 5.702 33.1298 5.702C32.6018 5.702 32.1098 5.828 31.6538 6.08C31.2098 6.332 30.8558 6.71 30.5918 7.214C30.3278 7.706 30.1958 8.312 30.1958 9.032C30.1958 10.1 30.4658 10.928 31.0058 11.516C31.5578 12.092 32.2478 12.38 33.0758 12.38Z" fill="#F9F9F9"/>
</svg>
