<svg width="98" height="98" viewBox="0 0 98 98" fill="none" xmlns="http://www.w3.org/2000/svg">
<circle cx="49" cy="49" r="49" fill="#222222" fill-opacity="0.1"/>
<path d="M49.0081 56.4606C49.0081 56.1572 49.2541 55.9114 49.5574 55.9114H50.7216C50.2919 55.9114 49.9433 55.5631 49.9433 55.1332V48.2073H48.9086C48.9208 48.331 48.8816 48.4586 48.787 48.5534L47.7731 49.5673C47.6057 49.7347 47.3339 49.7347 47.1664 49.5673L45.2607 47.6616L47.3463 58.1447H50.6923C49.762 58.1447 49.0081 57.3908 49.0081 56.4606V56.4606Z" fill="#DAE6F1"/>
<path d="M43.8936 53.3162C43.8624 53.2367 43.872 53.147 43.9194 53.076L44.4692 52.2512C44.5473 52.1339 44.5184 51.9758 44.4037 51.894L43.3837 51.1655C43.3125 51.1146 43.2713 51.0314 43.2746 50.9439L43.3969 47.52C43.3089 47.5445 43.221 47.57 43.1324 47.5922L39.8982 48.4062C38.9557 48.6436 38.277 49.466 38.223 50.4363L37.7759 58.145H45.7897L43.8936 53.3162Z" fill="#3A70BF"/>
<path d="M45.2608 47.6615L44.9008 47.3015C44.8265 47.2272 44.7871 47.1325 44.7786 47.0356C44.3296 47.2278 43.8676 47.3886 43.3969 47.5197L43.2746 50.9436C43.2715 51.0311 43.3125 51.1143 43.3837 51.1652L44.4037 51.8937C44.5183 51.9756 44.5472 52.1338 44.4691 52.2509L43.9194 53.0757C43.872 53.1467 43.8624 53.2364 43.8936 53.3159L45.7897 58.1447H47.3464L45.2608 47.6615Z" fill="#5290DB"/>
<path d="M48.9087 48.2075C48.9209 48.3312 48.8817 48.4588 48.7872 48.5536L47.9375 49.4032L47.9589 49.457L48.7246 50.6055H49.9432V48.2075H48.9087Z" fill="#FC657E"/>
<path d="M49.0085 56.4608C49.0085 56.1574 49.2544 55.9116 49.5578 55.9116H50.7219C50.2922 55.9116 49.9437 55.5633 49.9437 55.1334V50.6055H48.7248L47.3467 58.145H50.6927C49.7624 58.145 49.0085 57.391 49.0085 56.4608V56.4608Z" fill="#FC657E"/>
<path d="M49.8131 50.1269H48.9802L48.3566 49.1915C48.2102 48.9718 47.9128 48.9124 47.693 49.0588C47.4733 49.2055 47.4138 49.5025 47.5604 49.7224L48.326 50.8709C48.4148 51.0039 48.5641 51.0839 48.7241 51.0839H49.8129C50.0772 51.0839 50.2914 50.8697 50.2914 50.6054C50.2914 50.3411 50.0774 50.1269 49.8131 50.1269Z" fill="#222222"/>
<path d="M48.8048 50.1662C48.5462 50.1183 48.2957 50.2908 48.2482 50.5509L46.9005 57.9235C46.8528 58.1832 47.0251 58.4326 47.2852 58.4801C47.3141 58.4855 47.3432 58.4879 47.3717 58.4879C47.5984 58.4879 47.7995 58.3262 47.8418 58.0954L49.1895 50.7228C49.2372 50.463 49.0647 50.2136 48.8048 50.1662Z" fill="#222222"/>
<path d="M70.1994 58.145H28.781C28.0617 58.145 27.4785 58.7282 27.4785 59.4475C27.4785 60.1668 28.0617 60.7501 28.781 60.7501H70.1996C70.9189 60.7501 71.5021 60.1668 71.5021 59.4475C71.502 58.7282 70.9187 58.145 70.1994 58.145Z" fill="#AD7753"/>
<path d="M28.9194 60.75C28.9736 61.8644 29.8992 62.7598 31.0262 62.7598H67.9544C69.0816 62.7598 70.0071 61.8644 70.0613 60.75H28.9194Z" fill="#8E6244"/>
<path d="M67.9542 62.7595H31.0262C30.943 62.7595 30.8612 62.7532 30.7803 62.7437V71.8399C30.7803 72.2162 31.0854 72.5213 31.4617 72.5213H67.5188C67.8951 72.5213 68.2002 72.2162 68.2002 71.8399V62.7437C68.1194 62.7532 68.0377 62.7595 67.9542 62.7595Z" fill="#8E6244"/>
<path d="M48.7873 47.9469L46.5216 45.6813C46.3542 45.5138 46.0824 45.5138 45.9149 45.6813L44.901 46.6952C44.7335 46.8626 44.7335 47.1344 44.901 47.3019L47.1667 49.5676C47.3342 49.7351 47.606 49.7351 47.7734 49.5676L48.7873 48.5537C48.9548 48.3862 48.9548 48.1144 48.7873 47.9469Z" fill="#EDF4FC"/>
<path d="M49.4904 44.5233C48.5567 44.5233 47.6749 44.2915 46.8978 43.8848V44.8006C46.8978 45.1547 46.8012 45.4939 46.6279 45.7873L48.7872 47.9466C48.8601 48.0195 48.8992 48.1122 48.9087 48.2073H49.9435V44.5028C49.7938 44.5149 49.6432 44.5233 49.4904 44.5233V44.5233Z" fill="#F9D0B4"/>
<path d="M55.1166 33.7947C55.1134 33.6351 54.9857 33.5036 54.8261 33.4988C52.4882 33.4303 51.2563 32.5037 50.783 32.0397C50.6538 31.913 50.4451 31.9264 50.3326 32.068C48.2771 34.653 45.245 34.2882 44.2254 34.0747C44.0401 34.0359 43.8623 34.1756 43.8623 34.3649V38.8957C43.8623 41.9909 46.3946 44.5232 49.4898 44.5232C49.6424 44.5232 49.7932 44.5152 49.9429 44.5033V44.346C49.9429 43.9161 50.2913 43.5677 50.7212 43.5677H52.6167C54.1219 42.555 55.1174 40.8362 55.1174 38.8957V33.8828C55.1176 33.8533 55.1174 33.824 55.1166 33.7947V33.7947Z" fill="#F9D0B4"/>
<path d="M53.894 27.8254C53.2944 27.8254 52.7337 27.9948 52.252 28.2838C51.6892 27.3446 50.6639 26.7104 49.4951 26.7104H47.8444C44.6497 26.7104 42.0356 29.3245 42.0356 32.5192V35.122C42.4376 34.8002 42.9467 34.6069 43.5016 34.6069C43.6245 34.6069 43.7449 34.6173 43.8628 34.6354V34.365C43.863 34.1757 44.0406 34.0359 44.2259 34.0748C45.2453 34.2882 48.2776 34.653 50.3331 32.0681C50.4457 31.9265 50.6543 31.9131 50.7835 32.0398C51.2568 32.5037 52.4885 33.4303 54.8266 33.4989C54.9862 33.5036 55.1139 33.6351 55.1171 33.7948C55.1177 33.8241 55.1181 33.8533 55.1181 33.8828V34.6356C55.2358 34.6174 55.3564 34.6071 55.4793 34.6071C56.1126 34.6071 56.6863 34.8588 57.1089 35.2663V31.0399C57.1087 29.2718 55.662 27.8254 53.894 27.8254V27.8254Z" fill="#754E34"/>
<path d="M55.4789 34.6069C55.356 34.6069 55.2356 34.6173 55.1177 34.6356V38.896C55.1177 39.0229 55.1119 39.1484 55.1035 39.2734C55.226 39.2931 55.3508 39.3061 55.4789 39.3061C56.7764 39.3061 57.8284 38.2542 57.8284 36.9566C57.8284 35.6589 56.7764 34.6069 55.4789 34.6069Z" fill="#F9D0B4"/>
<path d="M43.8626 38.896V34.6356C43.7448 34.6175 43.6243 34.6069 43.5014 34.6069C42.2038 34.6069 41.1519 35.6589 41.1519 36.9564C41.1519 38.254 42.2038 39.306 43.5014 39.306C43.6294 39.306 43.7542 39.2929 43.8767 39.2732C43.8683 39.1484 43.8626 39.0229 43.8626 38.896Z" fill="#F9D0B4"/>
<path d="M51.4802 39.8643C51.2778 39.6945 50.9756 39.7213 50.8062 39.9238C50.5532 40.2257 50.1202 40.4062 49.6482 40.4062C49.1762 40.4062 48.7432 40.2258 48.4902 39.9236C48.3199 39.7207 48.0186 39.6947 47.8161 39.8643C47.6136 40.0341 47.5871 40.3359 47.7567 40.5384C48.1897 41.0546 48.8968 41.363 49.6482 41.363C50.4001 41.363 51.1071 41.0548 51.5397 40.5382C51.7095 40.3357 51.6829 40.0341 51.4802 39.8643Z" fill="#222222"/>
<path d="M51.9841 36.5361C51.5873 36.5361 51.2656 36.8578 51.2656 37.2546C51.2656 37.6514 51.5873 37.9731 51.9841 37.9731C52.3809 37.9731 52.7026 37.6514 52.7026 37.2546C52.7026 36.8578 52.3809 36.5361 51.9841 36.5361Z" fill="#222222"/>
<path d="M47.1608 36.5361C46.7641 36.5361 46.4424 36.8578 46.4424 37.2546C46.4424 37.6514 46.7641 37.9731 47.1608 37.9731C47.5576 37.9731 47.8793 37.6514 47.8793 37.2546C47.8793 36.8578 47.5576 36.5361 47.1608 36.5361Z" fill="#222222"/>
<path d="M41.7363 51.8218C41.472 51.8218 41.2578 52.036 41.2578 52.3003V57.7783C41.2578 58.0427 41.472 58.2569 41.7363 58.2569C42.0007 58.2569 42.2148 58.0427 42.2148 57.7783V52.3003C42.2148 52.0362 42.0007 51.8218 41.7363 51.8218Z" fill="#222222"/>
<path d="M49.1254 47.6082L46.8599 45.3425C46.6884 45.171 46.4606 45.0767 46.2181 45.0767C45.9756 45.0767 45.7478 45.171 45.5763 45.3425L44.5625 46.3564C44.2083 46.7103 44.2083 47.2861 44.5625 47.64L46.8281 49.9056C46.9996 50.0771 47.2274 50.1715 47.4699 50.1715C47.7124 50.1715 47.9402 50.0771 48.1117 49.9056L49.1256 48.8918C49.2971 48.7203 49.3916 48.4923 49.3916 48.25C49.3914 48.0075 49.2969 47.7795 49.1254 47.6082V47.6082ZM47.4699 49.194L45.2741 46.998L46.2181 46.054L48.4139 48.25L47.4699 49.194Z" fill="#222222"/>
<path d="M49.7493 47.729H48.9851C48.7206 47.729 48.5063 47.9433 48.5063 48.2077C48.5063 48.4722 48.7206 48.6864 48.9851 48.6864H49.7493C50.0137 48.6864 50.228 48.4722 50.228 48.2077C50.228 47.9433 50.0136 47.729 49.7493 47.729V47.729Z" fill="#222222"/>
<path d="M46.8975 43.5488C46.6332 43.5488 46.419 43.763 46.419 44.0273V44.8008C46.419 45.0347 46.3617 45.268 46.2534 45.4761C46.1313 45.7106 46.2226 45.9994 46.4569 46.1215C46.5275 46.1581 46.6031 46.1757 46.6774 46.1757C46.85 46.1757 47.0167 46.0819 47.1023 45.9179C47.2814 45.5739 47.376 45.1876 47.376 44.8006V44.0272C47.376 43.763 47.1618 43.5488 46.8975 43.5488V43.5488Z" fill="#222222"/>
<path d="M45.1411 46.8844C45.0389 46.6405 44.7583 46.5251 44.515 46.6279C44.0279 46.8318 43.5233 47.0002 43.0153 47.1281L39.7812 47.9421C38.6293 48.2321 37.811 49.2238 37.745 50.4088L37.3055 57.9869C37.2902 58.2507 37.4917 58.4771 37.7557 58.4924C37.7651 58.493 37.7744 58.4932 37.7836 58.4932C38.0351 58.4932 38.2463 58.2968 38.261 58.0424L38.7005 50.4631C38.7432 49.6977 39.2712 49.0576 40.0147 48.8706L43.2489 48.0564C43.8032 47.9168 44.3535 47.7333 44.8846 47.5107C45.1285 47.4085 45.2433 47.1281 45.1411 46.8844V46.8844Z" fill="#222222"/>
<path d="M55.5955 33.7853C55.5873 33.3686 55.2558 33.0327 54.8408 33.0207C52.6329 32.956 51.5023 32.0743 51.1187 31.698C50.9604 31.543 50.7424 31.4603 50.5231 31.476C50.3024 31.4896 50.0966 31.5972 49.959 31.7706C48.1031 34.104 45.4003 33.8316 44.3242 33.6066C44.0937 33.5583 43.8551 33.6157 43.6713 33.765C43.4895 33.9126 43.385 34.1314 43.3848 34.3689V38.8959C43.3848 42.2627 46.124 45.0017 49.4908 45.0017C49.5905 45.0017 49.6897 44.9992 49.7883 44.9947C50.0522 44.9822 50.2561 44.7583 50.2436 44.4941C50.2312 44.2302 50.003 44.0265 49.7431 44.0388C49.6594 44.0428 49.5754 44.0447 49.491 44.0447C46.6519 44.0447 44.342 41.735 44.342 38.8959V34.5841C45.5021 34.7872 48.4871 35.0061 50.5889 32.5123C51.2116 33.0683 52.4727 33.8684 54.6402 33.9706V38.8959C54.6402 40.567 53.8162 42.1435 52.4364 43.1126C52.2201 43.2645 52.1678 43.5629 52.3198 43.779C52.4718 43.9955 52.7704 44.0476 52.9863 43.8956C54.6211 42.7475 55.5973 40.8783 55.5973 38.8957V33.8828L55.5955 33.7853Z" fill="#222222"/>
<path d="M53.894 27.3469C53.3826 27.3469 52.8759 27.4558 52.4066 27.6648C51.7101 26.7715 50.6309 26.2319 49.4951 26.2319H47.8444C44.3777 26.2319 41.5571 29.0523 41.5571 32.5192V35.0016C41.5571 35.2659 41.7713 35.4801 42.0356 35.4801C42.3 35.4801 42.5142 35.2659 42.5142 35.0016V32.5192C42.5142 29.5802 44.9052 27.189 47.8444 27.189H49.4951C50.4468 27.189 51.3458 27.7027 51.8414 28.5298C51.9067 28.6385 52.0125 28.7172 52.1356 28.748C52.2585 28.779 52.389 28.7596 52.4981 28.6942C52.9238 28.439 53.4063 28.3041 53.894 28.3041C55.4027 28.3041 56.6302 29.5314 56.6302 31.0401V35.1557C56.6302 35.42 56.8444 35.6342 57.1087 35.6342C57.373 35.6342 57.5872 35.42 57.5872 35.1557V31.0399C57.5872 29.0037 55.9304 27.3469 53.894 27.3469V27.3469Z" fill="#222222"/>
<path d="M55.4789 34.1284C55.4002 34.1284 55.3223 34.1321 55.2452 34.1386C54.982 34.161 54.7866 34.3927 54.8092 34.6561C54.8316 34.9193 55.0632 35.113 55.3267 35.0921C55.3769 35.0879 55.4274 35.0854 55.4789 35.0854C56.5108 35.0854 57.3499 35.9248 57.3499 36.9564C57.3499 37.9881 56.5106 38.8274 55.4789 38.8274C55.4219 38.8274 55.3658 38.824 55.3103 38.8183C55.0481 38.7895 54.8122 38.9817 54.7849 39.2447C54.7573 39.5075 54.9483 39.7429 55.2113 39.7701C55.304 39.7799 55.3914 39.7845 55.4789 39.7845C57.0383 39.7845 58.3069 38.5158 58.3069 36.9564C58.3069 35.3971 57.0385 34.1284 55.4789 34.1284V34.1284Z" fill="#222222"/>
<path d="M43.6434 38.8207C43.5967 38.8248 43.5494 38.8274 43.5014 38.8274C42.4695 38.8274 41.6304 37.9881 41.6304 36.9564C41.6304 35.9248 42.4697 35.0854 43.5014 35.0854C43.5508 35.0854 43.5998 35.0877 43.648 35.0916C43.9142 35.1119 44.1422 34.9161 44.1631 34.6527C44.1839 34.3891 43.9875 34.1587 43.7242 34.1376C43.6505 34.1319 43.5766 34.1284 43.5014 34.1284C41.942 34.1284 40.6733 35.3971 40.6733 36.9564C40.6733 38.5158 41.942 39.7845 43.5014 39.7845C43.5781 39.7845 43.6539 39.7806 43.7288 39.7739C43.9919 39.7504 44.1864 39.518 44.1629 39.2547C44.1389 38.9915 43.9083 38.7957 43.6434 38.8207Z" fill="#222222"/>
<path d="M64.8753 43.5679H50.7216C50.2919 43.5679 49.9434 43.9162 49.9434 44.3461V55.1334C49.9434 55.5633 50.2917 55.9117 50.7216 55.9117H64.8753C65.305 55.9117 65.6536 55.5633 65.6536 55.1334V44.3461C65.6536 43.9164 65.305 43.5679 64.8753 43.5679Z" fill="#EDF4FC"/>
<path d="M66.0394 55.9116H49.5576C49.2543 55.9116 49.0083 56.1576 49.0083 56.4608C49.0083 57.391 49.7623 58.1449 50.6925 58.1449H64.9044C65.8346 58.1449 66.5886 57.391 66.5886 56.4608C66.5886 56.1576 66.3428 55.9116 66.0394 55.9116V55.9116Z" fill="#DAE6F1"/>
<path d="M59.1077 49.2612H56.4893C56.2249 49.2612 56.0107 49.4754 56.0107 49.7397C56.0107 50.0041 56.2249 50.2183 56.4893 50.2183H59.1077C59.372 50.2183 59.5862 50.0041 59.5862 49.7397C59.5862 49.4754 59.372 49.2612 59.1077 49.2612Z" fill="#222222"/>
<path d="M64.8752 43.0894H50.7216C50.0285 43.0894 49.4648 43.653 49.4648 44.3461V55.1332C49.4648 55.8261 50.0285 56.3898 50.7216 56.3898H64.8752C65.568 56.3898 66.1317 55.8261 66.1317 55.1332V44.3461C66.1317 43.6532 65.568 43.0894 64.8752 43.0894ZM65.1747 55.1334C65.1747 55.2986 65.0403 55.433 64.8752 55.433H50.7216C50.5564 55.433 50.4219 55.2986 50.4219 55.1334V44.3463C50.4219 44.1811 50.5564 44.0466 50.7216 44.0466H64.8752C65.0403 44.0466 65.1747 44.1811 65.1747 44.3463V55.1334Z" fill="#222222"/>
<path d="M66.0394 55.4331H49.5576C48.9909 55.4331 48.5298 55.8942 48.5298 56.461C48.5298 57.6534 49.4998 58.6237 50.6925 58.6237H64.9046C66.0971 58.6237 67.0673 57.6536 67.0673 56.461C67.0671 55.8942 66.6062 55.4331 66.0394 55.4331V55.4331ZM64.9044 57.6666H50.6923C50.0273 57.6666 49.4866 57.1259 49.4866 56.461C49.4866 56.4219 49.5184 56.3901 49.5574 56.3901H66.0392C66.0781 56.3901 66.1099 56.4219 66.1099 56.461C66.1101 57.1257 65.5693 57.6666 64.9044 57.6666V57.6666Z" fill="#222222"/>
<path d="M36.4947 48.3844C35.6334 48.2313 34.9635 47.5613 34.7912 46.7191C34.7912 46.6809 34.7146 46.6809 34.7146 46.7191C34.5424 47.5613 33.8725 48.2313 33.0111 48.3844C32.9729 48.3844 32.9729 48.4418 33.0111 48.4609C33.8725 48.6141 34.5424 49.284 34.7146 50.1262C34.7146 50.1645 34.7912 50.1645 34.7912 50.1262C34.9635 49.284 35.6334 48.6141 36.4947 48.4609C36.533 48.442 36.533 48.3844 36.4947 48.3844Z" fill="#F5C84C"/>
<path d="M62.633 39.353C62.0287 39.2456 61.5586 38.7755 61.4377 38.1846C61.4377 38.1579 61.3839 38.1579 61.3839 38.1846C61.2631 38.7755 60.793 39.2456 60.1886 39.353C60.1618 39.353 60.1618 39.3932 60.1886 39.4068C60.7928 39.5143 61.2629 39.9842 61.3839 40.5751C61.3839 40.6019 61.4377 40.6019 61.4377 40.5751C61.5586 39.9842 62.0285 39.5142 62.633 39.4068C62.6598 39.3932 62.6598 39.353 62.633 39.353Z" fill="#70D6F9"/>
<path d="M61.8845 27.186H61.4442V26.7458C61.4442 26.4204 61.1763 26.1333 60.8317 26.1333C60.4872 26.1333 60.2192 26.4013 60.2192 26.7458V27.186H59.779C59.4536 27.186 59.1665 27.454 59.1665 27.7985C59.1665 28.1431 59.4345 28.411 59.779 28.411H60.2192V28.8513C60.2192 29.1767 60.4872 29.4638 60.8317 29.4638C61.1763 29.4638 61.4442 29.1958 61.4442 28.8513V28.411H61.8845C62.2099 28.411 62.497 28.1431 62.497 27.7985C62.497 27.4542 62.229 27.186 61.8845 27.186Z" fill="#87D147"/>
<path d="M33.0114 52.9023C32.6518 52.9023 32.3604 53.1938 32.3604 53.5534C32.3604 53.913 32.6518 54.2045 33.0114 54.2045C33.371 54.2045 33.6625 53.913 33.6625 53.5534C33.6625 53.1938 33.371 52.9023 33.0114 52.9023Z" fill="#FC657E"/>
<path d="M56.5446 24C56.185 24 55.8936 24.2914 55.8936 24.6511C55.8936 25.0107 56.185 25.3021 56.5446 25.3021C56.9042 25.3021 57.1957 25.0107 57.1957 24.6511C57.1957 24.2914 56.9042 24 56.5446 24Z" fill="#F5C84C"/>
<path d="M70.1994 57.6665H28.781C27.7989 57.6665 27 58.4654 27 59.4475C27 60.4296 27.7989 61.2286 28.781 61.2286H70.1996C71.1817 61.2286 71.9807 60.4296 71.9807 59.4475C71.9807 58.4654 71.1815 57.6665 70.1994 57.6665ZM70.1994 60.2714H28.781C28.3266 60.2714 27.957 59.9017 27.957 59.4473C27.957 58.9929 28.3266 58.6233 28.781 58.6233H70.1996C70.654 58.6233 71.0236 58.9929 71.0236 59.4473C71.0236 59.9017 70.6538 60.2714 70.1994 60.2714Z" fill="#222222"/>
<path d="M70.1041 60.4093C69.844 60.3791 69.6047 60.5684 69.5749 60.8312C69.4817 61.658 68.7848 62.2816 67.9542 62.2816H31.0264C30.1974 62.2816 29.4845 61.6341 29.4035 60.8076C29.3775 60.5446 29.1426 60.3536 28.8806 60.3781C28.6176 60.4039 28.4252 60.638 28.4511 60.901C28.582 62.2338 29.6891 63.2387 31.0264 63.2387H67.9544C69.2725 63.2387 70.378 62.2499 70.5262 60.9383C70.5556 60.6757 70.3667 60.439 70.1041 60.4093Z" fill="#222222"/>
<path d="M68.2002 62.377C67.9359 62.377 67.7217 62.5911 67.7217 62.8555V71.8399C67.7217 71.9519 67.6306 72.043 67.5186 72.043H31.4619C31.3499 72.043 31.2588 71.9519 31.2588 71.8399V62.9154C31.2588 62.651 31.0446 62.4369 30.7803 62.4369C30.5159 62.4369 30.3018 62.651 30.3018 62.9154V71.8399C30.3018 72.4796 30.8222 73 31.4619 73H67.5188C68.1585 73 68.6789 72.4796 68.6789 71.8399V62.8555C68.6787 62.5911 68.4645 62.377 68.2002 62.377Z" fill="#222222"/>
<path d="M47.7885 57.9156L45.737 47.6042C45.6851 47.345 45.4334 47.1776 45.1743 47.2283C44.9151 47.28 44.7468 47.5319 44.7983 47.791L46.8498 58.1025C46.8952 58.33 47.095 58.4876 47.3186 58.4876C47.3496 58.4876 47.381 58.4845 47.4126 58.4784C47.6717 58.4269 47.8402 58.175 47.7885 57.9156Z" fill="#222222"/>
<path d="M46.1812 57.8332L44.3803 53.2469L44.8672 52.5167C45.09 52.1827 45.0085 51.7383 44.6818 51.5048L43.7569 50.844L43.8712 47.6416C43.8807 47.3775 43.6742 47.1558 43.4101 47.1464C43.1532 47.135 42.9243 47.3434 42.9149 47.6075L42.7964 50.9265C42.7872 51.1757 42.9032 51.4108 43.1055 51.5549L43.9542 52.1611L43.5209 52.8109C43.3875 53.0115 43.3599 53.2655 43.448 53.4916L45.2904 58.1835C45.3645 58.372 45.545 58.4873 45.736 58.4873C45.7942 58.4873 45.8532 58.4766 45.9108 58.454C46.1567 58.3569 46.2779 58.0792 46.1812 57.8332V57.8332Z" fill="#222222"/>
</svg>
